# xmcd
#
# Track frame offsets:
#        187
#        13230
#        32340
#        44345
#        55675
#        67565
#        89990
#        109400
#        122645
#        135565
#        149287
#        164315
#
# Disc length: 2435 seconds
#
# Revision: 0
# Processed by: cddbd v1.5.1PL0 Copyright (c) Steve Scherf et al.
# Submitted via: ExactAudioCopy v0.95a3
#
DISCID=a109810c
DTITLE=ANN LEWIS - CHEEK
DYEAR=1986
DGENRE=JPop
TTITLE0=One Boy
TTITLE1=Make Yourself Comfortable
TTITLE2=Gee Whiz
TTITLE3=In the Flesh
TTITLE4=This Boy
TTITLE5=One Sided Love
TTITLE6=Linda
TTITLE7=Leader of the Pack
TTITLE8=Oh No Not My Baby
TTITLE9=You Baby
TTITLE10=Oh Me Oh My
TTITLE11=Good-Bye Boy
EXTD=
EXTT0=
EXTT1=
EXTT2=
EXTT3=
EXTT4=
EXTT5=
EXTT6=
EXTT7=
EXTT8=
EXTT9=
EXTT10=
EXTT11=
PLAYORDER=
